<?xml version="1.0" standalone="no"?>
<!DOCTYPE svg PUBLIC "-//W3C//DTD SVG 20010904//EN"
 "http://www.w3.org/TR/2001/REC-SVG-20010904/DTD/svg10.dtd">
<svg version="1.0" xmlns="http://www.w3.org/2000/svg"
 width="1000.000000pt" height="1400.000000pt" viewBox="0 0 1000.000000 1400.000000"
 preserveAspectRatio="xMidYMid meet">

<g transform="translate(0.000000,1400.000000) scale(0.100000,-0.100000)"
fill="#272d42" stroke="none">
<path d="M850 13420 l0 -90 70 0 71 0 -3 -427 c-3 -411 -4 -429 -24 -463 -32
-55 -77 -80 -144 -80 -109 0 -161 64 -168 207 l-5 83 -94 0 -95 0 4 -102 c6
-137 32 -203 107 -279 79 -79 144 -102 271 -97 82 3 102 8 148 33 68 37 116
91 156 174 l31 66 3 443 3 442 65 0 64 0 0 90 0 90 -230 0 -230 0 0 -90z"/>
<path d="M737 12036 c-115 -48 -187 -115 -237 -219 -45 -93 -52 -165 -48 -479
5 -317 9 -341 84 -453 45 -68 90 -106 174 -148 61 -30 70 -32 180 -32 106 0
120 2 172 28 78 38 158 114 196 185 57 106 62 146 62 467 0 159 -5 310 -11
334 -28 124 -130 251 -244 306 -52 25 -74 29 -165 32 -93 3 -111 1 -163 -21z
m250 -187 c24 -11 58 -39 77 -61 61 -71 66 -100 66 -402 0 -149 -5 -287 -10
-306 -30 -109 -128 -190 -230 -190 -70 0 -124 25 -172 78 -69 77 -71 87 -76
379 -4 293 2 346 50 418 64 96 193 133 295 84z"/>
<path d="M450 10500 l0 -70 60 0 60 0 0 -515 0 -515 -60 0 -60 0 0 -70 0 -70
190 0 190 0 0 70 0 70 -50 0 -50 0 0 140 0 140 57 89 57 89 96 -227 96 -226
-63 -3 -63 -3 0 -69 0 -70 205 0 205 0 0 70 0 70 -53 0 -54 0 -132 311 -132
311 129 202 128 201 57 3 57 3 0 69 0 70 -205 0 -205 0 0 -70 0 -69 60 -3 59
-3 -149 -234 -150 -234 0 236 0 237 50 0 50 0 0 70 0 70 -190 0 -190 0 0 -70z"/>
<path d="M450 9015 l0 -85 65 0 65 0 0 -485 0 -485 -65 0 -65 0 0 -85 0 -85
435 0 435 0 0 170 0 170 -90 0 -90 0 0 -85 0 -85 -190 0 -190 0 0 200 0 200
200 0 200 0 0 85 0 85 -200 0 -200 0 0 200 0 200 190 0 190 0 0 -85 0 -85 90
0 90 0 0 170 0 170 -435 0 -435 0 0 -85z"/>
<path d="M4775 8753 c-121 -44 -205 -118 -258 -231 -30 -63 -32 -74 -32 -182
0 -108 2 -119 32 -182 38 -81 101 -151 170 -190 43 -24 55 -37 65 -70 11 -36
5 -64 -67 -361 -90 -372 -323 -1289 -329 -1294 -2 -2 -21 27 -41 64 -107 192
-243 371 -389 511 -122 116 -214 181 -341 243 -165 79 -232 94 -420 93 -140 0
-172 -4 -259 -27 -360 -97 -624 -372 -741 -772 -14 -50 -31 -126 -37 -170 -15
-117 -21 -126 -83 -154 -75 -32 -135 -88 -176 -163 -33 -61 -34 -67 -34 -173
0 -106 1 -112 34 -173 39 -72 88 -120 163 -159 49 -26 62 -28 163 -28 101 0
114 2 163 28 75 39 124 87 163 159 33 61 34 67 34 173 0 106 -1 112 -34 173
-19 34 -52 78 -73 98 l-39 35 73 73 c46 46 95 83 133 102 56 27 68 29 175 29
102 0 122 -3 177 -27 329 -140 590 -574 620 -1031 l6 -92 1312 -1 1312 0 7 93
c21 304 138 593 327 810 195 225 445 309 642 216 77 -37 181 -132 214 -198
l20 -39 -36 -65 c-35 -65 -36 -68 -36 -176 0 -106 1 -112 34 -173 39 -72 88
-120 163 -159 49 -26 62 -28 163 -28 106 0 112 1 173 34 72 39 120 88 159 163
26 49 28 62 28 163 0 106 -1 112 -34 173 -60 110 -163 180 -278 190 l-62 5 -6
46 c-20 161 -73 348 -132 465 -107 213 -275 386 -468 483 -206 104 -495 132
-709 69 -198 -59 -343 -152 -531 -341 -147 -147 -224 -246 -333 -432 l-67
-112 -12 42 c-7 23 -99 384 -204 801 l-190 759 19 46 c14 35 29 52 68 74 76
44 132 105 172 186 36 73 37 77 37 190 0 110 -2 120 -32 183 -44 94 -109 160
-201 206 -71 34 -82 37 -181 40 -82 2 -117 -2 -156 -15z"/>
<path d="M8680 7615 l0 -85 59 0 58 0 84 -202 85 -203 -48 -16 c-261 -88 -332
-434 -128 -622 99 -92 121 -97 461 -97 l289 0 0 85 0 85 -65 0 -65 0 0 485 0
484 63 3 62 3 3 83 3 82 -211 0 -210 0 0 -85 0 -85 55 0 55 0 0 -201 0 -200
-36 3 -35 3 -118 280 -118 280 -121 3 -122 3 0 -86z m550 -856 l0 -202 -120 5
c-111 5 -124 7 -167 34 -150 93 -108 321 65 355 20 3 79 7 130 8 l92 1 0 -201z"/>
<path d="M450 7545 l0 -85 65 0 65 0 0 -485 0 -485 -65 0 -65 0 0 -85 0 -85
210 0 210 0 0 85 0 85 -55 0 -55 0 0 201 0 200 36 -3 35 -3 118 -280 118 -280
121 -3 122 -3 0 86 0 85 -58 0 -59 0 -85 203 -84 204 40 11 c154 42 267 213
253 383 -8 99 -46 177 -118 243 -99 92 -118 96 -459 96 l-290 0 0 -85z m597
-121 c124 -77 124 -251 0 -328 -43 -27 -56 -29 -167 -34 l-120 -5 0 203 0 203
120 -5 c111 -5 124 -7 167 -34z"/>
<path d="M8670 6060 l0 -170 90 0 90 0 0 85 0 85 190 0 190 0 0 -200 0 -200
-200 0 -200 0 0 -85 0 -85 200 0 200 0 0 -200 0 -200 -190 0 -190 0 0 85 0 85
-90 0 -90 0 0 -170 0 -170 435 0 435 0 0 85 0 85 -65 0 -65 0 0 485 0 485 65
0 66 0 -3 83 -3 82 -432 3 -433 2 0 -170z"/>
<path d="M8670 4690 l0 -70 53 0 54 0 132 -311 132 -311 -129 -202 -128 -201
-57 -3 -57 -3 0 -69 0 -70 205 0 205 0 0 70 0 69 -60 3 -59 3 149 234 150 234
0 -236 0 -237 -50 0 -50 0 0 -70 0 -70 188 2 187 3 0 65 0 65 -57 3 -58 3 0
514 0 515 60 0 60 0 0 70 0 70 -190 0 -190 0 0 -70 0 -70 50 0 50 0 0 -140 0
-140 -57 -89 -57 -89 -96 227 -96 226 63 3 63 3 0 69 0 70 -205 0 -205 0 0
-70z"/>
<path d="M8963 3301 c-101 -37 -190 -116 -238 -210 -50 -99 -55 -142 -55 -456
0 -159 5 -310 11 -334 28 -124 129 -251 244 -307 56 -27 68 -29 175 -29 109 0
119 2 183 32 131 62 222 185 247 333 8 46 10 166 8 352 -5 317 -9 341 -84 453
-45 68 -90 106 -174 148 -58 29 -75 32 -165 35 -78 2 -111 -2 -152 -17z m232
-190 c22 -10 57 -36 77 -59 69 -77 71 -87 76 -379 2 -172 0 -280 -8 -316 -43
-207 -282 -279 -414 -125 -61 71 -66 100 -66 402 0 149 5 287 10 306 30 109
128 190 230 190 32 0 72 -8 95 -19z"/>
<path d="M9049 1836 c-92 -33 -154 -92 -203 -196 l-31 -65 -3 -442 -3 -443
-65 0 -64 0 0 -90 0 -90 230 0 230 0 0 90 0 90 -70 0 -71 0 3 427 c3 411 4
429 24 463 32 55 77 80 144 80 107 0 158 -62 169 -203 l6 -82 94 -3 93 -3 -4
103 c-6 137 -31 203 -107 279 -74 73 -140 99 -254 99 -45 -1 -98 -7 -118 -14z"/>
</g>
</svg>
